Coordinates
version=1
nRows=16
nColumns=18
inDegrees=yes

Units are S.I. units (second, meters, Newtons, ...)
If the header above contains a line with 'inDegrees', this indicates whether rotational values are in degrees (yes) or radians (no).

endheader
time	ground_thorax_rot_x	ground_thorax_rot_y	ground_thorax_rot_z	ground_thorax_tx	ground_thorax_ty	ground_thorax_tz	clav_prot	clav_elev	scapula_abduction	scapula_elevation	scapula_upward_rot	scapula_winging	plane_elv	shoulder_elv	axial_rot	elbow_flexion	pro_sup
      0.00000000	      1.58632152	    -10.37542908	    -23.30426909	     -0.01304872	     -0.02319759	      0.04339737	    -25.49266177	    -11.08621043	    -21.12129226	     -8.78170125	     10.91762495	     32.66627377	      6.00000000	     28.15618058	    -18.80977275	      4.27014053	     63.92270238
      0.02000000	      1.61973071	    -10.27774302	    -23.38262360	     -0.01298786	     -0.02339980	      0.04335015	    -25.58746440	    -11.08230168	    -21.26490761	     -8.78514726	     10.92260826	     32.68771286	      6.00000000	     28.12881867	    -18.76624441	      4.49268767	     63.92270238
      0.04000000	      1.77642870	    -10.20998573	    -23.33132287	     -0.01300003	     -0.02335115	      0.04325993	    -25.64444610	    -11.00516139	    -21.28135624	     -8.77761791	     11.10131906	     32.63465228	      6.00000000	     28.04046577	    -18.72680830	      4.07941939	     63.92270238
      0.06000000	      1.69100291	    -10.14265501	    -23.41808834	     -0.01299307	     -0.02348152	      0.04316504	    -25.59893092	    -11.11987397	    -21.28226275	     -8.80635224	     10.89668082	     32.70991307	      6.00000000	     28.18867934	    -18.68999597	      3.95190080	     63.92270238
      0.08000000	      1.68446652	    -10.05916555	    -23.51260534	     -0.01292225	     -0.02372024	      0.04313686	    -25.66866375	    -11.13485489	    -21.40552974	     -8.81077170	     10.85669898	     32.74179960	      6.00000000	     28.19124225	    -18.76382511	      4.21547211	     63.92270238
      0.10000000	      1.63982129	    -10.02200885	    -23.53675207	     -0.01294824	     -0.02372029	      0.04303097	    -25.58170620	    -11.22763478	    -21.32568907	     -8.83296026	     10.69755381	     32.78863638	      6.00000000	     28.34725922	    -18.79018348	      3.75547487	     63.92270238
      0.12000000	      1.74492130	     -9.90482894	    -23.54694089	     -0.01291757	     -0.02381198	      0.04290662	    -25.67737077	    -11.16270311	    -21.42012601	     -8.82585622	     10.83490293	     32.75891305	      6.00000000	     28.24141909	    -18.67686520	      3.71031781	     63.92270238
      0.14000000	      1.63406904	     -9.88978919	    -23.64206355	     -0.01288468	     -0.02395795	      0.04283839	    -25.58381451	    -11.27948154	    -21.33090787	     -8.86047288	     10.65760842	     32.81684690	      6.00000000	     28.38208830	    -18.80928248	      3.58075239	     63.92270238
      0.16000000	      1.72874816	     -9.80209921	    -23.69608411	     -0.01287971	     -0.02412147	      0.04269146	    -25.61351426	    -11.19361532	    -21.35615695	     -8.82424381	     10.75361499	     32.77194082	      6.00000000	     28.40210325	    -19.33886180	      3.58147031	     63.92270238
      0.18000000	      1.76561316	     -9.69189986	    -23.80719173	     -0.01282315	     -0.02445262	      0.04255801	    -25.69286836	    -11.11167261	    -21.45519314	     -8.79372712	     10.85052125	     32.74086219	      6.00000000	     28.33908647	    -19.78475176	      3.99133504	     63.92270238
      0.20000000	      1.83358149	     -9.59160868	    -23.75695619	     -0.01286170	     -0.02436707	      0.04234467	    -25.66453477	    -11.08093259	    -21.40391431	     -8.77900692	     10.88610036	     32.71477468	      6.00000000	     28.33646365	    -19.63135965	      3.53968047	     63.92270238
      0.22000000	      1.71429720	     -9.57599817	    -23.81101470	     -0.01275518	     -0.02438847	      0.04226817	    -25.57723403	    -11.22422228	    -21.35432325	     -8.81490552	     10.63693919	     32.79961262	      6.00000000	     28.49702036	    -19.22698069	      3.39659157	     63.92270238
      0.24000000	      1.62530643	     -9.60223197	    -23.85993795	     -0.01269743	     -0.02443604	      0.04218932	    -25.45437959	    -11.30202864	    -21.19141569	     -8.83964861	     10.53831920	     32.81845434	      6.00000000	     28.54727165	    -18.90288516	      3.28954723	     63.92270238
      0.26000000	      1.68879201	     -9.39540079	    -23.88967048	     -0.01264535	     -0.02450534	      0.04191706	    -25.59807036	    -11.27652599	    -21.37953437	     -8.84753133	     10.61196080	     32.82945180	      6.00000000	     28.47759785	    -18.99236115	      3.26925338	     63.92270238
      0.28000000	      1.71819188	     -9.32817894	    -23.88219796	     -0.01263226	     -0.02456541	      0.04175200	    -25.58825478	    -11.19575831	    -21.37275729	     -8.79925423	     10.65414243	     32.78821258	      6.00000000	     28.45761819	    -19.23786404	      3.25857951	     63.92270238
      0.30000000	      1.56517103	     -9.27125958	    -23.93394380	     -0.01250875	     -0.02457804	      0.04164281	    -25.56341006	    -11.35023037	    -21.35000241	     -8.87534748	     10.51846538	     32.86815200	      6.00000000	     28.43204530	    -18.80227006	      3.12803640	     63.92270238
